<?xml version="1.0" standalone="no"?>
<!DOCTYPE svg PUBLIC "-//W3C//DTD SVG 20010904//EN"
 "http://www.w3.org/TR/2001/REC-SVG-20010904/DTD/svg10.dtd">
<svg version="1.0" xmlns="http://www.w3.org/2000/svg"
 width="275.000000pt" height="215.000000pt" viewBox="0 0 275.000000 215.000000"
 preserveAspectRatio="xMidYMid meet">
<metadata>
Created by potrace 1.16, written by Peter Selinger 2001-2019
</metadata>
<g transform="translate(0.000000,215.000000) scale(0.100000,-0.100000)"
fill="#000000" stroke="none">
<path d="M835 2003 c-266 -13 -434 -40 -540 -88 -104 -47 -167 -149 -193 -314
-8 -53 -16 -101 -18 -108 -1 -6 -20 -14 -42 -18 l-39 -6 0 -62 c0 -41 2 -55 8
-42 4 11 8 37 8 59 1 30 4 37 16 32 8 -3 15 0 15 7 0 7 5 4 10 -5 6 -9 15
-130 20 -269 6 -140 15 -258 20 -263 6 -6 10 -22 10 -36 0 -46 59 -321 87
-405 70 -213 180 -307 413 -353 167 -34 300 -42 662 -42 357 0 452 7 663 45
208 39 334 116 436 270 33 50 51 67 78 76 20 6 62 23 94 36 l57 26 0 45 0 45
-55 -6 -54 -5 20 51 c11 29 31 79 44 112 12 33 35 86 49 117 29 64 37 98 66
279 25 156 25 238 1 354 -37 180 -111 311 -202 358 -101 52 -357 91 -692 107
-182 9 -791 11 -942 3z m1085 -128 c160 -14 357 -44 431 -65 90 -26 142 -95
195 -259 25 -78 26 -93 21 -202 -3 -65 -10 -135 -16 -156 -5 -21 -17 -67 -27
-103 -9 -36 -25 -82 -35 -102 -11 -21 -19 -48 -19 -61 0 -13 -6 -37 -13 -53
-8 -16 -19 -40 -25 -54 -8 -19 -11 22 -11 176 -1 280 -20 333 -144 394 -128
63 -327 64 -542 2 -88 -25 -100 -31 -99 -50 0 -12 1 -62 2 -112 l2 -90 33 0
c23 0 57 17 116 56 112 75 176 104 231 104 84 0 120 -50 120 -169 l0 -70 -112
1 c-278 0 -458 -127 -458 -324 0 -83 24 -143 80 -197 58 -56 121 -75 226 -68
103 6 175 37 238 103 42 44 46 46 46 23 0 -35 34 -85 70 -104 16 -8 30 -19 30
-23 0 -12 -82 -107 -117 -136 -121 -101 -353 -131 -958 -123 -341 4 -404 7
-502 26 -263 49 -335 135 -418 501 -72 315 -75 843 -5 980 22 42 77 88 130
106 59 21 188 44 290 53 173 15 1057 12 1240 -4z m220 -1046 c0 -61 -5 -119
-11 -131 -24 -45 -153 -74 -212 -47 -78 35 -79 192 -3 243 35 23 121 45 179
45 l47 1 0 -111z"/>
<path d="M796 1724 c-217 -53 -394 -237 -441 -459 -19 -90 -19 -250 0 -340 34
-159 146 -314 282 -387 132 -71 329 -97 467 -62 77 19 227 91 289 139 47 36
47 36 47 95 l0 60 -38 0 c-26 0 -49 -9 -73 -26 -114 -87 -272 -116 -407 -75
-55 17 -83 32 -127 73 -91 83 -132 185 -141 353 -13 227 52 385 187 460 50 28
61 30 159 30 101 0 107 -1 170 -35 l65 -35 24 -87 24 -88 64 0 63 0 0 170 0
169 -37 10 c-179 47 -457 64 -577 35z"/>
</g>
</svg>
